<svg width="402" height="856" viewBox="0 0 402 856" fill="none" xmlns="http://www.w3.org/2000/svg">
<rect x="3" y="3" width="396" height="850" rx="27" fill="#D0D0D0"/>
<rect x="3" y="3" width="396" height="850" rx="27" stroke="#262626" stroke-width="6"/>
<g clip-path="url(#clip0_43_121)">
<path d="M91 4H310C307.894 4.60269 306.418 6.49525 306.345 8.68446L306.317 9.5618C306.317 23.0587 295.375 34 281.878 34H119.122C105.625 34 94.6835 23.0587 94.6835 9.5618L94.6545 8.68447C94.5823 6.49525 93.1059 4.60269 91 4Z" fill="black"/>
<path opacity="0.35" d="M357.5 26C357.5 24.8034 358.47 23.8334 359.667 23.8334H376.333C377.53 23.8334 378.5 24.8034 378.5 26V32C378.5 33.1967 377.53 34.1667 376.333 34.1667H359.667C358.47 34.1667 357.5 33.1967 357.5 32V26Z" stroke="black"/>
<path opacity="0.4" d="M380 27.0001V31.0001C380.805 30.6613 381.328 29.8732 381.328 29.0001C381.328 28.1269 380.805 27.3388 380 27.0001Z" fill="black"/>
<path d="M359 26.6667C359 25.9303 359.597 25.3334 360.333 25.3334H375.667C376.403 25.3334 377 25.9303 377 26.6667V31.3334C377 32.0698 376.403 32.6667 375.667 32.6667H360.333C359.597 32.6667 359 32.0698 359 31.3334V26.6667Z" fill="black"/>
<path fill-rule="evenodd" clip-rule="evenodd" d="M344.331 25.608C346.547 25.6081 348.678 26.4596 350.284 27.9863C350.405 28.1042 350.598 28.1027 350.717 27.983L351.873 26.8163C351.934 26.7556 351.967 26.6734 351.967 26.5878C351.966 26.5022 351.932 26.4204 351.871 26.3603C347.656 22.3208 341.006 22.3208 336.791 26.3603C336.73 26.4203 336.695 26.5021 336.694 26.5877C336.694 26.6733 336.727 26.7556 336.788 26.8163L337.944 27.983C338.063 28.1029 338.256 28.1044 338.377 27.9863C339.983 26.4595 342.115 25.608 344.331 25.608ZM344.331 29.4037C345.548 29.4036 346.722 29.8561 347.625 30.6733C347.747 30.7893 347.939 30.7868 348.058 30.6677L349.213 29.501C349.274 29.4398 349.307 29.3568 349.307 29.2705C349.306 29.1843 349.27 29.102 349.208 29.042C346.46 26.4856 342.204 26.4856 339.456 29.042C339.394 29.102 339.358 29.1843 339.358 29.2706C339.357 29.3569 339.391 29.4399 339.452 29.501L340.606 30.6677C340.725 30.7868 340.917 30.7893 341.039 30.6733C341.941 29.8567 343.114 29.4042 344.331 29.4037ZM346.644 31.9575C346.646 32.044 346.612 32.1274 346.55 32.188L344.553 34.2037C344.494 34.2629 344.414 34.2963 344.331 34.2963C344.248 34.2963 344.168 34.2629 344.109 34.2037L342.112 32.188C342.05 32.1274 342.016 32.0439 342.018 31.9574C342.02 31.8709 342.057 31.789 342.121 31.731C343.397 30.6521 345.265 30.6521 346.541 31.731C346.605 31.789 346.642 31.871 346.644 31.9575Z" fill="black"/>
<path fill-rule="evenodd" clip-rule="evenodd" d="M330.667 23.6666H329.667C329.115 23.6666 328.667 24.1143 328.667 24.6666V33.3333C328.667 33.8856 329.115 34.3333 329.667 34.3333H330.667C331.219 34.3333 331.667 33.8856 331.667 33.3333V24.6666C331.667 24.1143 331.219 23.6666 330.667 23.6666ZM325 26H326C326.553 26 327 26.4477 327 27V33.3333C327 33.8856 326.553 34.3333 326 34.3333H325C324.448 34.3333 324 33.8856 324 33.3333V27C324 26.4477 324.448 26 325 26ZM321.334 28.3333H320.334C319.781 28.3333 319.334 28.781 319.334 29.3333V33.3333C319.334 33.8856 319.781 34.3333 320.334 34.3333H321.334C321.886 34.3333 322.334 33.8856 322.334 33.3333V29.3333C322.334 28.781 321.886 28.3333 321.334 28.3333ZM316.667 30.3333H315.667C315.115 30.3333 314.667 30.781 314.667 31.3333V33.3333C314.667 33.8856 315.115 34.3333 315.667 34.3333H316.667C317.219 34.3333 317.667 33.8856 317.667 33.3333V31.3333C317.667 30.781 317.219 30.3333 316.667 30.3333Z" fill="black"/>
<path d="M43.3203 34.2563C46.0083 34.2563 47.605 32.1543 47.605 28.5947C47.605 27.2544 47.3486 26.1265 46.8579 25.2549C46.1475 23.8999 44.9243 23.1675 43.3789 23.1675C41.0791 23.1675 39.4531 24.7129 39.4531 26.8809C39.4531 28.917 40.918 30.3965 42.9321 30.3965C44.1699 30.3965 45.1733 29.8179 45.6714 28.8145H45.6934C45.6934 28.8145 45.7227 28.8145 45.73 28.8145C45.7446 28.8145 45.7959 28.8145 45.7959 28.8145C45.7959 31.2314 44.8804 32.6743 43.335 32.6743C42.4268 32.6743 41.7236 32.1763 41.4819 31.3779H39.5996C39.9146 33.1138 41.3867 34.2563 43.3203 34.2563ZM43.3862 28.895C42.1704 28.895 41.3062 28.0308 41.3062 26.8223C41.3062 25.6431 42.2144 24.7422 43.3936 24.7422C44.5728 24.7422 45.481 25.6577 45.481 26.8516C45.481 28.0308 44.5947 28.895 43.3862 28.895Z" fill="black"/>
<path d="M50.6961 34.1538C51.3919 34.1538 51.868 33.6558 51.868 32.9966C51.868 32.3301 51.3919 31.8394 50.6961 31.8394C50.0076 31.8394 49.5242 32.3301 49.5242 32.9966C49.5242 33.6558 50.0076 34.1538 50.6961 34.1538ZM50.6961 28.6606C51.3919 28.6606 51.868 28.1699 51.868 27.5107C51.868 26.8442 51.3919 26.3535 50.6961 26.3535C50.0076 26.3535 49.5242 26.8442 49.5242 27.5107C49.5242 28.1699 50.0076 28.6606 50.6961 28.6606Z" fill="black"/>
<path d="M58.7237 34H60.5328V32.0298H61.961V30.4331H60.5328V23.4312H57.8668C55.9991 26.2437 54.5123 28.5947 53.5602 30.3452V32.0298H58.7237V34ZM55.3106 30.3672C56.5411 28.1992 57.6397 26.4634 58.6505 24.9692H58.753V30.4771H55.3106V30.3672Z" fill="black"/>
<path d="M65.9896 34H67.8793V23.4312H65.997L63.2357 25.3647V27.1812L65.8651 25.3354H65.9896V34Z" fill="black"/>
</g>
<defs>
<clipPath id="clip0_43_121">
<rect width="390" height="44" fill="white" transform="translate(6 6)"/>
</clipPath>
</defs>
</svg>
