<svg width="402" height="858" viewBox="0 0 402 858" fill="none" xmlns="http://www.w3.org/2000/svg">
<rect x="3" y="3" width="396" height="852" rx="27" fill="#FCFCFC"/>
<rect x="3" y="3" width="396" height="852" rx="27" stroke="#262626" stroke-width="6"/>
<g clip-path="url(#clip0_41_2584)">
<path d="M91 4H310C307.894 4.60269 306.418 6.49525 306.345 8.68446L306.317 9.5618C306.317 23.0587 295.375 34 281.878 34H119.122C105.625 34 94.6835 23.0587 94.6835 9.5618L94.6545 8.68447C94.5823 6.49525 93.1059 4.60269 91 4Z" fill="black"/>
<path opacity="0.35" d="M357.5 26C357.5 24.8034 358.47 23.8334 359.667 23.8334H376.333C377.53 23.8334 378.5 24.8034 378.5 26V32C378.5 33.1967 377.53 34.1667 376.333 34.1667H359.667C358.47 34.1667 357.5 33.1967 357.5 32V26Z" stroke="black"/>
<path opacity="0.4" d="M380 27.0001V31.0001C380.805 30.6613 381.328 29.8732 381.328 29.0001C381.328 28.1269 380.805 27.3388 380 27.0001Z" fill="black"/>
<path d="M359 26.6667C359 25.9303 359.597 25.3334 360.333 25.3334H375.667C376.403 25.3334 377 25.9303 377 26.6667V31.3334C377 32.0698 376.403 32.6667 375.667 32.6667H360.333C359.597 32.6667 359 32.0698 359 31.3334V26.6667Z" fill="black"/>
<path fill-rule="evenodd" clip-rule="evenodd" d="M344.33 25.608C346.546 25.6081 348.677 26.4596 350.283 27.9863C350.404 28.1042 350.597 28.1027 350.716 27.983L351.872 26.8163C351.933 26.7556 351.966 26.6734 351.966 26.5878C351.965 26.5022 351.931 26.4204 351.87 26.3603C347.655 22.3208 341.005 22.3208 336.79 26.3603C336.729 26.4203 336.694 26.5021 336.693 26.5877C336.693 26.6733 336.726 26.7556 336.787 26.8163L337.943 27.983C338.062 28.1029 338.255 28.1044 338.376 27.9863C339.982 26.4595 342.114 25.608 344.33 25.608ZM344.33 29.4037C345.547 29.4036 346.721 29.8561 347.624 30.6733C347.746 30.7893 347.938 30.7868 348.057 30.6677L349.212 29.501C349.273 29.4398 349.307 29.3568 349.306 29.2705C349.305 29.1843 349.269 29.102 349.207 29.042C346.459 26.4856 342.203 26.4856 339.455 29.042C339.393 29.102 339.357 29.1843 339.357 29.2706C339.356 29.3569 339.39 29.4399 339.451 29.501L340.605 30.6677C340.724 30.7868 340.916 30.7893 341.038 30.6733C341.94 29.8567 343.113 29.4042 344.33 29.4037ZM346.643 31.9575C346.645 32.044 346.611 32.1274 346.549 32.188L344.552 34.2037C344.493 34.2629 344.413 34.2963 344.33 34.2963C344.247 34.2963 344.167 34.2629 344.108 34.2037L342.111 32.188C342.049 32.1274 342.015 32.0439 342.017 31.9574C342.019 31.8709 342.056 31.789 342.12 31.731C343.396 30.6521 345.264 30.6521 346.54 31.731C346.604 31.789 346.641 31.871 346.643 31.9575Z" fill="black"/>
<path fill-rule="evenodd" clip-rule="evenodd" d="M330.667 23.6666H329.667C329.114 23.6666 328.667 24.1143 328.667 24.6666V33.3333C328.667 33.8856 329.114 34.3333 329.667 34.3333H330.667C331.219 34.3333 331.667 33.8856 331.667 33.3333V24.6666C331.667 24.1143 331.219 23.6666 330.667 23.6666ZM325 26H326C326.552 26 327 26.4477 327 27V33.3333C327 33.8856 326.552 34.3333 326 34.3333H325C324.448 34.3333 324 33.8856 324 33.3333V27C324 26.4477 324.448 26 325 26ZM321.333 28.3333H320.333C319.781 28.3333 319.333 28.781 319.333 29.3333V33.3333C319.333 33.8856 319.781 34.3333 320.333 34.3333H321.333C321.885 34.3333 322.333 33.8856 322.333 33.3333V29.3333C322.333 28.781 321.885 28.3333 321.333 28.3333ZM316.667 30.3333H315.667C315.114 30.3333 314.667 30.781 314.667 31.3333V33.3333C314.667 33.8856 315.114 34.3333 315.667 34.3333H316.667C317.219 34.3333 317.667 33.8856 317.667 33.3333V31.3333C317.667 30.781 317.219 30.3333 316.667 30.3333Z" fill="black"/>
<path d="M43.3208 34.2563C46.0088 34.2563 47.6055 32.1543 47.6055 28.5947C47.6055 27.2544 47.3491 26.1265 46.8584 25.2549C46.1479 23.8999 44.9248 23.1675 43.3794 23.1675C41.0796 23.1675 39.4536 24.7129 39.4536 26.8809C39.4536 28.917 40.9185 30.3965 42.9326 30.3965C44.1704 30.3965 45.1738 29.8179 45.6719 28.8145H45.6938C45.6938 28.8145 45.7231 28.8145 45.7305 28.8145C45.7451 28.8145 45.7964 28.8145 45.7964 28.8145C45.7964 31.2314 44.8809 32.6743 43.3354 32.6743C42.4272 32.6743 41.7241 32.1763 41.4824 31.3779H39.6001C39.915 33.1138 41.3872 34.2563 43.3208 34.2563ZM43.3867 28.895C42.1709 28.895 41.3066 28.0308 41.3066 26.8223C41.3066 25.6431 42.2148 24.7422 43.394 24.7422C44.5732 24.7422 45.4814 25.6577 45.4814 26.8516C45.4814 28.0308 44.5952 28.895 43.3867 28.895Z" fill="black"/>
<path d="M50.6966 34.1538C51.3924 34.1538 51.8685 33.6558 51.8685 32.9966C51.8685 32.3301 51.3924 31.8394 50.6966 31.8394C50.0081 31.8394 49.5247 32.3301 49.5247 32.9966C49.5247 33.6558 50.0081 34.1538 50.6966 34.1538ZM50.6966 28.6606C51.3924 28.6606 51.8685 28.1699 51.8685 27.5107C51.8685 26.8442 51.3924 26.3535 50.6966 26.3535C50.0081 26.3535 49.5247 26.8442 49.5247 27.5107C49.5247 28.1699 50.0081 28.6606 50.6966 28.6606Z" fill="black"/>
<path d="M58.7242 34H60.5333V32.0298H61.9615V30.4331H60.5333V23.4312H57.8673C55.9996 26.2437 54.5128 28.5947 53.5606 30.3452V32.0298H58.7242V34ZM55.3111 30.3672C56.5416 28.1992 57.6402 26.4634 58.651 24.9692H58.7535V30.4771H55.3111V30.3672Z" fill="black"/>
<path d="M65.9901 34H67.8798V23.4312H65.9975L63.2362 25.3647V27.1812L65.8656 25.3354H65.9901V34Z" fill="black"/>
</g>
<defs>
<clipPath id="clip0_41_2584">
<rect width="390" height="44" fill="white" transform="translate(6 6)"/>
</clipPath>
</defs>
</svg>
