<svg width="150" height="150" viewBox="0 0 150 150" fill="none" xmlns="http://www.w3.org/2000/svg">
<path fill-rule="evenodd" clip-rule="evenodd" d="M75.118 9.38971C38.8536 9.38306 9.38965 38.8544 9.38965 75.118C9.38965 111.382 38.8543 140.846 75.118 140.846C89.1166 140.846 102.111 136.446 112.775 128.978C116.293 126.603 112.623 121.357 109.186 123.849C99.5315 130.611 87.8067 134.587 75.118 134.587C42.2374 134.587 15.6495 107.999 15.6495 75.118C15.6495 42.2374 42.2381 15.6435 75.118 15.6496C91.0743 15.6525 106.331 22.0887 117.497 33.4571L113.068 37.8861C103.082 27.6972 89.4148 21.9131 75.118 21.9094C68.0637 21.9076 61.3268 23.2962 55.1647 25.7912C51.1515 27.2933 53.5837 33.3041 57.5122 31.5926C62.9527 29.3897 68.8847 28.1676 75.118 28.1692C87.7527 28.1725 99.8252 33.2909 108.642 42.312L74.0054 76.9489C71.8543 74.7978 66.6266 69.5731 62.9376 65.8842C59.2975 62.2441 53.2907 62.2441 49.6507 65.8842C46.0107 69.5242 46.0107 75.528 49.6507 79.168L67.3604 96.8655C71.0005 100.506 76.9951 100.506 80.6351 96.8655C93.416 84.0846 106.196 71.3047 118.977 58.524C120.994 63.8125 122.064 69.4318 122.067 75.1211C122.081 101.085 101.084 122.067 75.118 122.067C49.1518 122.067 28.1692 101.084 28.1692 75.118C28.1692 68.8858 29.3928 62.9529 31.5956 57.5122C33.3071 53.5837 27.2963 51.1515 25.7942 55.1648C23.2997 61.3262 21.9093 68.0647 21.9093 75.118C21.9093 104.467 45.7687 128.327 75.118 128.327C104.467 128.327 128.342 104.466 128.327 75.115C128.323 67.7275 126.736 60.4563 123.763 53.7374C125.339 52.1617 126.916 50.5876 128.492 49.0119C132.467 57.1187 134.584 66.0374 134.587 75.118C134.589 87.8067 130.612 99.5321 123.849 109.187C121.357 112.623 126.603 116.293 128.978 112.775C136.447 102.112 140.849 89.118 140.846 75.118C140.844 64.3592 138.187 53.7946 133.162 44.3385C134.834 42.667 136.506 40.9972 138.178 39.3257C141.818 35.6857 141.818 29.6911 138.178 26.051C136.358 24.231 133.955 23.3124 131.545 23.3124C129.135 23.3124 126.723 24.231 124.903 26.051L121.923 29.0312C109.588 16.4951 92.7345 9.39294 75.118 9.38971ZM131.542 29.5264C132.332 29.5264 133.12 29.8417 133.752 30.4739C135.016 31.7383 135.016 33.6354 133.752 34.8998C114.571 54.0808 95.3932 73.2617 76.2122 92.4426C74.9479 93.707 73.0507 93.707 71.7863 92.4426L54.0766 74.7451C52.8122 73.4808 52.8122 71.5714 54.0766 70.307C55.341 69.0426 57.2472 69.0426 58.5117 70.307C62.9381 74.7334 71.7863 83.5939 71.7863 83.5939C72.3733 84.1807 73.1693 84.5103 73.9993 84.5103C74.8293 84.5103 75.6253 84.1807 76.2122 83.5939L129.329 30.4739C129.961 29.8417 130.752 29.5264 131.542 29.5264ZM119.429 116.253C119.01 116.246 118.594 116.324 118.205 116.481C117.817 116.638 117.464 116.871 117.167 117.167C116.876 117.458 116.645 117.803 116.488 118.183C116.33 118.563 116.249 118.97 116.249 119.382C116.249 119.793 116.33 120.2 116.488 120.58C116.645 120.96 116.876 121.305 117.167 121.596C117.458 121.887 117.803 122.118 118.183 122.276C118.563 122.433 118.97 122.514 119.382 122.514C119.793 122.514 120.2 122.433 120.58 122.276C120.96 122.118 121.305 121.887 121.596 121.596C121.887 121.305 122.118 120.96 122.276 120.58C122.433 120.2 122.514 119.793 122.514 119.382C122.514 118.97 122.433 118.563 122.276 118.183C122.118 117.803 121.887 117.458 121.596 117.167C121.02 116.592 120.243 116.265 119.429 116.253Z" fill="#A8A8A8"/>
</svg>
