<svg width="24" height="202" viewBox="0 0 24 202" fill="none" xmlns="http://www.w3.org/2000/svg">
<g clip-path="url(#clip0_41_2744)">
<path d="M21.99 4C21.99 2.9 21.1 2 20 2H4C2.9 2 2 2.9 2 4V16C2 17.1 2.9 18 4 18H18L22 22L21.99 4ZM17 14H7C6.45 14 6 13.55 6 13C6 12.45 6.45 12 7 12H17C17.55 12 18 12.45 18 13C18 13.55 17.55 14 17 14ZM17 11H7C6.45 11 6 10.55 6 10C6 9.45 6.45 9 7 9H17C17.55 9 18 9.45 18 10C18 10.55 17.55 11 17 11ZM17 8H7C6.45 8 6 7.55 6 7C6 6.45 6.45 6 7 6H17C17.55 6 18 6.45 18 7C18 7.55 17.55 8 17 8Z" fill="white"/>
</g>
<path d="M7.912 42V35.224C7.912 35.0653 7.912 34.8973 7.912 34.72C7.92133 34.5333 7.93067 34.342 7.94 34.146C7.62267 34.454 7.254 34.7247 6.834 34.958C6.414 35.182 5.98467 35.3453 5.546 35.448L5.252 34.426C5.42 34.4073 5.63 34.3467 5.882 34.244C6.14333 34.132 6.414 33.9967 6.694 33.838C6.98333 33.67 7.24933 33.4927 7.492 33.306C7.73467 33.1193 7.92133 32.9373 8.052 32.76H9.032V42H7.912ZM11.4911 42V41.09C12.4151 40.4087 13.1851 39.8113 13.8011 39.298C14.4264 38.7847 14.9257 38.318 15.2991 37.898C15.6724 37.478 15.9384 37.0813 16.0971 36.708C16.2557 36.3253 16.3351 35.9287 16.3351 35.518C16.3351 34.9673 16.1577 34.524 15.8031 34.188C15.4577 33.8427 14.9817 33.67 14.3751 33.67C13.7404 33.67 13.2317 33.88 12.8491 34.3C12.4664 34.7107 12.2424 35.2613 12.1771 35.952L11.1971 35.364C11.3184 34.5613 11.6497 33.9033 12.1911 33.39C12.7417 32.8767 13.4837 32.62 14.4171 32.62C15.0517 32.62 15.5977 32.746 16.0551 32.998C16.5217 33.2407 16.8811 33.5813 17.1331 34.02C17.3851 34.4493 17.5111 34.9487 17.5111 35.518C17.5111 36.0967 17.3711 36.666 17.0911 37.226C16.8111 37.7767 16.3491 38.3553 15.7051 38.962C15.0611 39.5687 14.1884 40.2407 13.0871 40.978V40.992C13.1897 40.9827 13.3297 40.978 13.5071 40.978C13.6937 40.9687 13.8757 40.964 14.0531 40.964C14.2397 40.9547 14.3797 40.95 14.4731 40.95H17.7071V42H11.4911Z" fill="white"/>
<g clip-path="url(#clip1_41_2744)">
<path d="M15.5 89.5C15.5 91.5 13 93 13 94.5H11C11 93 8.5 91.5 8.5 89.5C8.5 87.57 10.07 86 12 86C13.93 86 15.5 87.57 15.5 89.5ZM13 95.5H11V96C11 96.55 11.45 97 12 97C12.55 97 13 96.55 13 96V95.5ZM22 90C22 87.54 21.11 85.29 19.64 83.55C19.35 83.21 18.84 83.17 18.52 83.49C18.25 83.76 18.22 84.2 18.46 84.49C19.73 85.97 20.5 87.9 20.5 90C20.5 92.1 19.73 94.03 18.46 95.52C18.21 95.81 18.25 96.25 18.52 96.52C18.84 96.84 19.35 96.8 19.64 96.46C21.11 94.71 22 92.46 22 90ZM3.5 90C3.5 87.9 4.27 85.97 5.54 84.48C5.79 84.19 5.75 83.75 5.48 83.48C5.17 83.17 4.65 83.2 4.36 83.54C2.89 85.29 2 87.54 2 90C2 92.46 2.89 94.71 4.36 96.46C4.65 96.8 5.16 96.84 5.48 96.52C5.75 96.25 5.78 95.81 5.54 95.52C4.27 94.03 3.5 92.1 3.5 90ZM17.5 90C17.5 91.28 17.06 92.47 16.32 93.41C16.09 93.7 16.12 94.12 16.39 94.39C16.71 94.71 17.24 94.68 17.52 94.32C18.44 93.13 19 91.63 19 90C19 88.37 18.44 86.87 17.51 85.69C17.23 85.33 16.7 85.3 16.38 85.62C16.12 85.88 16.08 86.3 16.31 86.6C17.06 87.53 17.5 88.72 17.5 90ZM7.62 94.38C7.88 94.12 7.92 93.7 7.69 93.4C6.94 92.47 6.5 91.28 6.5 90C6.5 88.72 6.94 87.53 7.68 86.59C7.91 86.3 7.88 85.88 7.61 85.61C7.3 85.3 6.77 85.33 6.49 85.68C5.56 86.87 5 88.37 5 90C5 91.63 5.56 93.13 6.49 94.32C6.77 94.67 7.3 94.7 7.62 94.38Z" fill="white"/>
</g>
<path d="M6.124 120V117.578H1.616V116.752L5.83 110.76H7.244V116.612H8.882V117.578H7.244V120H6.124ZM2.806 116.612H6.124V113.154C6.124 112.911 6.12867 112.664 6.138 112.412C6.15667 112.16 6.17067 111.913 6.18 111.67H6.152C6.04 111.903 5.89533 112.165 5.718 112.454C5.54067 112.743 5.37733 112.995 5.228 113.21L2.806 116.612ZM12.2518 120V113.224C12.2518 113.065 12.2518 112.897 12.2518 112.72C12.2612 112.533 12.2705 112.342 12.2798 112.146C11.9625 112.454 11.5938 112.725 11.1738 112.958C10.7538 113.182 10.3245 113.345 9.88584 113.448L9.59184 112.426C9.75984 112.407 9.96984 112.347 10.2218 112.244C10.4832 112.132 10.7538 111.997 11.0338 111.838C11.3232 111.67 11.5892 111.493 11.8318 111.306C12.0745 111.119 12.2612 110.937 12.3918 110.76H13.3718V120H12.2518ZM15.8309 120V119.09C16.7549 118.409 17.5249 117.811 18.1409 117.298C18.7663 116.785 19.2656 116.318 19.6389 115.898C20.0123 115.478 20.2783 115.081 20.4369 114.708C20.5956 114.325 20.6749 113.929 20.6749 113.518C20.6749 112.967 20.4976 112.524 20.1429 112.188C19.7976 111.843 19.3216 111.67 18.7149 111.67C18.0803 111.67 17.5716 111.88 17.1889 112.3C16.8063 112.711 16.5823 113.261 16.5169 113.952L15.5369 113.364C15.6583 112.561 15.9896 111.903 16.5309 111.39C17.0816 110.877 17.8236 110.62 18.7569 110.62C19.3916 110.62 19.9376 110.746 20.3949 110.998C20.8616 111.241 21.2209 111.581 21.4729 112.02C21.7249 112.449 21.8509 112.949 21.8509 113.518C21.8509 114.097 21.7109 114.666 21.4309 115.226C21.1509 115.777 20.6889 116.355 20.0449 116.962C19.4009 117.569 18.5283 118.241 17.4269 118.978V118.992C17.5296 118.983 17.6696 118.978 17.8469 118.978C18.0336 118.969 18.2156 118.964 18.3929 118.964C18.5796 118.955 18.7196 118.95 18.8129 118.95H22.0469V120H15.8309Z" fill="white"/>
<g clip-path="url(#clip2_41_2744)">
<path d="M14.0001 157H10.0001C9.4501 157 9.0001 157.45 9.0001 158C9.0001 158.55 9.4501 159 10.0001 159H14.0001C14.5501 159 15.0001 158.55 15.0001 158C15.0001 157.45 14.5501 157 14.0001 157ZM12.0001 170C12.5501 170 13.0001 169.55 13.0001 169V165C13.0001 164.45 12.5501 164 12.0001 164C11.4501 164 11.0001 164.45 11.0001 165V169C11.0001 169.55 11.4501 170 12.0001 170ZM19.0301 163.39L19.7801 162.64C20.1601 162.26 20.1701 161.63 19.7801 161.24L19.7701 161.23C19.3801 160.84 18.7601 160.85 18.3701 161.23L17.6201 161.98C16.0701 160.74 14.1201 160 12.0001 160C7.2001 160 3.1201 163.96 3.0001 168.76C2.8701 173.84 6.9401 178 12.0001 178C16.9801 178 21.0001 173.97 21.0001 169C21.0001 166.88 20.2601 164.93 19.0301 163.39ZM12.0001 176C8.1301 176 5.0001 172.87 5.0001 169C5.0001 165.13 8.1301 162 12.0001 162C15.8701 162 19.0001 165.13 19.0001 169C19.0001 172.87 15.8701 176 12.0001 176Z" fill="white"/>
</g>
<path d="M7.912 198V191.224C7.912 191.065 7.912 190.897 7.912 190.72C7.92133 190.533 7.93067 190.342 7.94 190.146C7.62267 190.454 7.254 190.725 6.834 190.958C6.414 191.182 5.98467 191.345 5.546 191.448L5.252 190.426C5.42 190.407 5.63 190.347 5.882 190.244C6.14333 190.132 6.414 189.997 6.694 189.838C6.98333 189.67 7.24933 189.493 7.492 189.306C7.73467 189.119 7.92133 188.937 8.052 188.76H9.032V198H7.912ZM11.4911 198V197.09C12.4151 196.409 13.1851 195.811 13.8011 195.298C14.4264 194.785 14.9257 194.318 15.2991 193.898C15.6724 193.478 15.9384 193.081 16.0971 192.708C16.2557 192.325 16.3351 191.929 16.3351 191.518C16.3351 190.967 16.1577 190.524 15.8031 190.188C15.4577 189.843 14.9817 189.67 14.3751 189.67C13.7404 189.67 13.2317 189.88 12.8491 190.3C12.4664 190.711 12.2424 191.261 12.1771 191.952L11.1971 191.364C11.3184 190.561 11.6497 189.903 12.1911 189.39C12.7417 188.877 13.4837 188.62 14.4171 188.62C15.0517 188.62 15.5977 188.746 16.0551 188.998C16.5217 189.241 16.8811 189.581 17.1331 190.02C17.3851 190.449 17.5111 190.949 17.5111 191.518C17.5111 192.097 17.3711 192.666 17.0911 193.226C16.8111 193.777 16.3491 194.355 15.7051 194.962C15.0611 195.569 14.1884 196.241 13.0871 196.978V196.992C13.1897 196.983 13.3297 196.978 13.5071 196.978C13.6937 196.969 13.8757 196.964 14.0531 196.964C14.2397 196.955 14.3797 196.95 14.4731 196.95H17.7071V198H11.4911Z" fill="white"/>
<defs>
<clipPath id="clip0_41_2744">
<rect width="24" height="24" fill="white"/>
</clipPath>
<clipPath id="clip1_41_2744">
<rect width="24" height="24" fill="white" transform="translate(0 78)"/>
</clipPath>
<clipPath id="clip2_41_2744">
<rect width="24" height="24" fill="white" transform="translate(0 156)"/>
</clipPath>
</defs>
</svg>
