<svg width="60" height="60" viewBox="0 0 60 60" fill="none" xmlns="http://www.w3.org/2000/svg">
<rect x="0.5" y="0.5" width="59" height="59" rx="15.5" stroke="#262626"/>
<g clip-path="url(#clip0_205_3433)">
<path d="M39.48 31.7L31.5 27V21.5C31.5 20.67 30.83 20 30 20C29.17 20 28.5 20.67 28.5 21.5V27L20.52 31.7C20.2 31.88 20 32.23 20 32.6C20 33.3 20.67 33.8 21.34 33.61L28.5 31.51V37L26.24 38.35C26.09 38.44 26 38.61 26 38.78V39.28V39.36C26 39.69 26.31 39.93 26.62 39.85L29.54 39.12L30 39L30.38 39.09L30.8 39.2L32.7 39.68L33.37 39.85C33.69 39.93 33.99 39.69 33.99 39.36V38.99V38.78C33.99 38.6 33.9 38.44 33.75 38.35L31.5 37V31.5L38.66 33.6C39.33 33.8 40 33.3 40 32.6C40 32.23 39.8 31.88 39.48 31.7Z" fill="#161616"/>
</g>
<defs>
<clipPath id="clip0_205_3433">
<rect width="24" height="24" fill="white" transform="translate(18 18)"/>
</clipPath>
</defs>
</svg>
