<svg width="60" height="60" viewBox="0 0 60 60" fill="none" xmlns="http://www.w3.org/2000/svg">
<rect x="0.5" y="0.5" width="59" height="59" rx="15.5" stroke="#262626"/>
<g clip-path="url(#clip0_205_3435)">
<path d="M36.92 24.01C36.72 23.42 36.16 23 35.5 23H24.5C23.84 23 23.29 23.42 23.08 24.01L21.11 29.68C21.04 29.89 21 30.11 21 30.34V37.5C21 38.33 21.67 39 22.5 39C23.33 39 24 38.33 24 37.5V37H36V37.5C36 38.32 36.67 39 37.5 39C38.32 39 39 38.33 39 37.5V30.34C39 30.12 38.96 29.89 38.89 29.68L36.92 24.01ZM24.5 34C23.67 34 23 33.33 23 32.5C23 31.67 23.67 31 24.5 31C25.33 31 26 31.67 26 32.5C26 33.33 25.33 34 24.5 34ZM35.5 34C34.67 34 34 33.33 34 32.5C34 31.67 34.67 31 35.5 31C36.33 31 37 31.67 37 32.5C37 33.33 36.33 34 35.5 34ZM23 29L24.27 25.18C24.41 24.78 24.79 24.5 25.22 24.5H34.78C35.21 24.5 35.59 24.78 35.73 25.18L37 29H23Z" fill="#161616"/>
</g>
<defs>
<clipPath id="clip0_205_3435">
<rect width="24" height="24" fill="white" transform="translate(18 18)"/>
</clipPath>
</defs>
</svg>
