<svg width="40" height="40" viewBox="0 0 40 40" fill="none" xmlns="http://www.w3.org/2000/svg">
<circle cx="20" cy="20" r="20" fill="#C4C4C4"/>
<g clip-path="url(#clip0_205_3332)">
<path d="M20 20C22.21 20 24 18.21 24 16C24 13.79 22.21 12 20 12C17.79 12 16 13.79 16 16C16 18.21 17.79 20 20 20ZM20 22C17.33 22 12 23.34 12 26V27C12 27.55 12.45 28 13 28H27C27.55 28 28 27.55 28 27V26C28 23.34 22.67 22 20 22Z" fill="#161616"/>
</g>
<defs>
<clipPath id="clip0_205_3332">
<rect width="24" height="24" fill="white" transform="translate(8 8)"/>
</clipPath>
</defs>
</svg>
