<svg width="200" height="200" viewBox="0 0 200 200" fill="none" xmlns="http://www.w3.org/2000/svg">
<path d="M170.69 1.27578H141.016C131.967 1.27578 124.294 7.275 121.763 15.5043L112.061 13.0055C111.391 12.8328 110.712 12.7008 110.029 12.6098C109.515 10.7582 108.301 9.19766 106.689 8.23203C106.754 5.8168 105.719 3.45078 103.744 1.81914C102.313 0.645703 100.505 0 98.6533 0C97.0518 0 95.5018 0.472656 94.2021 1.34766C93.4814 1.82812 92.6439 2.10742 91.7775 2.15625C89.6326 2.27813 87.6666 3.22852 86.2377 4.83203C84.8436 6.39727 84.1268 8.40352 84.2088 10.4707C81.6428 11.8328 78.8018 12.6617 75.9822 12.8063C73.8361 12.9172 71.8643 13.857 70.4268 15.4531C69.6912 16.2703 69.1447 17.2102 68.7986 18.2141C67.3846 19.5645 66.4994 21.4637 66.4994 23.573V44.8563L49.0131 39.7023C48.3182 39.4977 47.6131 39.3992 46.9166 39.3992C44.2662 39.3992 41.7459 40.827 40.4174 43.2449L14.2959 90.7969C13.2217 92.7527 13.0854 95.0887 13.9244 97.157C14.7646 99.2246 16.4904 100.804 18.6244 101.458L46.1393 109.881L45.4271 111.237C42.4725 110.154 39.3307 109.585 36.1529 109.585C21.276 109.585 9.17285 121.688 9.17285 136.565C9.17285 145.5 13.6725 153.729 20.751 158.688C19.451 162.511 19.5197 166.698 21.0006 170.516C22.8088 175.177 26.5416 178.827 31.2439 180.529L82.1736 198.965C84.0709 199.652 86.0514 200 88.0623 200C94.5486 200 100.433 196.424 103.421 190.666L115.566 167.264C116.384 167.575 117.269 167.753 118.196 167.753H153.328C157.424 167.753 160.744 164.432 160.744 160.337V151.712C160.744 150.412 160.407 149.192 159.82 148.129C168.336 142.298 173.937 132.505 173.937 121.427C173.937 119.734 173.801 118.043 173.529 116.364C179.24 111.3 182.622 103.975 182.622 96.1746C182.622 84.773 175.513 75.0004 165.495 71.0574L175.749 51.2973C176.483 49.884 177.012 48.3957 177.33 46.8707C185.183 44.1215 190.828 36.6371 190.828 27.859V21.4125C190.827 10.309 181.794 1.27578 170.69 1.27578Z" fill="white"/>
<path d="M49.7561 150.629C57.4315 142.954 57.4316 130.51 49.7563 122.835C42.0811 115.159 29.6369 115.159 21.9615 122.835C14.2861 130.51 14.286 142.954 21.9612 150.63C29.6365 158.305 42.0807 158.305 49.7561 150.629Z" fill="#FF899A"/>
<path d="M163.424 114.314C173.453 110.16 178.215 98.6632 174.061 88.6347C169.907 78.6062 158.409 73.8439 148.381 77.998C138.352 82.152 133.59 93.6493 137.744 103.678C141.898 113.706 153.395 118.469 163.424 114.314Z" fill="#FFD0C4"/>
<path d="M148.954 145.197C162.029 141.238 169.418 127.43 165.459 114.356C161.501 101.281 147.693 93.8917 134.618 97.8505C121.544 101.809 114.154 115.617 118.113 128.692C122.072 141.766 135.88 149.156 148.954 145.197Z" fill="#FFF5EE"/>
<path d="M141.783 146.569C127.974 146.569 116.739 135.334 116.739 121.525C116.739 107.716 127.974 96.4814 141.783 96.4814C155.592 96.4814 166.826 107.716 166.826 121.525C166.826 135.334 155.592 146.569 141.783 146.569ZM141.783 97.0998C128.315 97.0998 117.358 108.057 117.358 121.526C117.358 134.994 128.315 145.951 141.783 145.951C155.251 145.951 166.207 134.994 166.207 121.526C166.207 108.057 155.251 97.0998 141.783 97.0998Z" fill="#8F8FEF"/>
<path d="M156.055 122.408H141.238C141.067 122.408 140.929 122.27 140.929 122.099V111.248C140.929 111.078 141.067 110.939 141.238 110.939C141.409 110.939 141.548 111.078 141.548 111.248V121.79H156.055C156.226 121.79 156.365 121.928 156.365 122.099C156.365 122.27 156.226 122.408 156.055 122.408Z" fill="#8F8FEF"/>
<path d="M28.0498 159.937L98.9853 24.8215C101.128 20.741 105.795 18.6703 110.258 19.8199L163.147 33.4461C169.331 35.0395 172.427 41.9715 169.485 47.6399L96.8248 187.65C94.5295 192.073 89.3131 194.111 84.6275 192.415L33.4635 173.894C27.8013 171.844 25.251 165.268 28.0498 159.937Z" fill="#401A49"/>
<path d="M106.426 22.6583L161.141 35.7786C163.48 36.3395 164.682 38.9376 163.596 41.0833L91.4435 183.576C90.5967 185.249 88.6377 186.031 86.8713 185.402L33.4385 166.379C31.3103 165.622 30.3412 163.159 31.3814 161.155L102.251 24.5649C103.039 23.0454 104.761 22.2591 106.426 22.6583Z" fill="#FFF5EE"/>
<path d="M114.899 22.1899L112.668 26.8224C111.658 28.9196 112.797 31.4196 115.043 32.0325L142.829 39.6106C144.46 40.0552 146.185 39.3466 147.033 37.8841L150.615 31.7001L114.899 22.1899Z" fill="#401A49"/>
<path d="M155.624 70.1432C155.423 70.1432 155.22 70.1002 155.027 70.0084L154.098 69.5662C153.402 69.2365 153.105 68.4033 153.433 67.7084L159.07 55.7615C159.381 55.1068 160.153 54.792 160.831 55.0521L161.829 55.4326C162.192 55.5709 162.484 55.8564 162.628 56.2162C162.773 56.5768 162.76 56.9854 162.593 57.3369L156.888 69.3455C156.649 69.8486 156.146 70.1432 155.624 70.1432ZM159.352 55.8943L153.715 67.8412C153.458 68.3818 153.69 69.0299 154.23 69.2861L155.16 69.7283C155.703 69.9865 156.351 69.7537 156.608 69.2127L162.314 57.2045C162.446 56.9271 162.455 56.6174 162.34 56.3326C162.226 56.0486 162.005 55.8322 161.719 55.7229L160.721 55.3424C160.198 55.1443 159.592 55.3838 159.352 55.8943Z" fill="#FFF5EE"/>
<path d="M20.4326 94.3416L46.6725 46.5713L119.337 67.9893L93.3213 116.656L20.4326 94.3416Z" fill="#FFA766"/>
<path d="M89.3684 86.135C86.5926 94.8557 78.4246 101.181 68.7707 101.181C56.8199 101.181 47.1289 91.49 47.1289 79.5393C47.1289 67.5885 56.8199 57.8975 68.7707 57.8975C71.1902 57.8975 73.5242 58.2904 75.6981 59.0275L67.4074 77.967L89.3684 86.135Z" fill="#8F8FEF"/>
<path d="M70.3354 76.9262L78.28 60.6191C78.28 60.6191 86.6425 62.5008 89.3604 69.3996C92.0784 76.2984 89.1515 83.616 89.1515 83.616L70.3354 76.9262Z" fill="#FFD0C4"/>
<path d="M121.133 80.9935L125.888 71.4834L136.508 74.8119L132.228 84.4807L121.133 80.9935Z" fill="#FFD0C4"/>
<path d="M114.582 95.1L119.337 85.5898L129.956 88.9184L125.677 98.5871L114.582 95.1Z" fill="#FFD0C4"/>
<path d="M107.106 109.92L111.861 100.41L122.481 103.739L118.201 113.407L107.106 109.92Z" fill="#FFD0C4"/>
<path d="M126.944 80.9048C126.89 80.9048 126.837 80.8938 126.786 80.8712C126.667 80.818 126.582 80.7083 126.562 80.5794L126.035 77.2883C126.001 77.0778 126.144 76.8794 126.356 76.8454C126.577 76.8157 126.765 76.9567 126.799 77.1665L127.231 79.8727L133.973 75.5204C134.151 75.4063 134.391 75.4548 134.508 75.636C134.624 75.8153 134.572 76.0548 134.393 76.1708L127.153 80.8438C127.09 80.884 127.017 80.9048 126.944 80.9048Z" fill="#401A49"/>
<path d="M120.314 94.8866C120.263 94.8866 120.211 94.8761 120.164 94.855C120.05 94.8042 119.97 94.6995 119.951 94.5765L119.449 91.4429C119.417 91.2421 119.554 91.0534 119.755 91.021C119.962 90.9858 120.144 91.1261 120.176 91.3269L120.589 93.903L127.01 89.7581C127.181 89.6483 127.409 89.696 127.52 89.8679C127.63 90.0386 127.581 90.2671 127.41 90.3773L120.514 94.8276C120.453 94.8667 120.383 94.8866 120.314 94.8866Z" fill="#401A49"/>
<path d="M112.174 110.21C112.124 110.21 112.073 110.199 112.025 110.178C111.91 110.127 111.83 110.022 111.81 109.899L111.312 106.736C111.281 106.534 111.417 106.346 111.619 106.314C111.816 106.282 112.009 106.42 112.041 106.621L112.45 109.219L118.818 105.042C118.988 104.93 119.215 104.978 119.328 105.147C119.44 105.317 119.392 105.546 119.222 105.658L112.376 110.149C112.315 110.19 112.245 110.21 112.174 110.21Z" fill="#401A49"/>
<path d="M81.3687 23.2222H73.7944V49.4522H81.3687V23.2222Z" fill="#F05D6A"/>
<path d="M91.999 18.6318H84.4248V49.4522H91.999V18.6318Z" fill="#FFA766"/>
<path d="M102.896 14.2056H95.3213V49.4521H102.896V14.2056Z" fill="#FF899A"/>
<path d="M76.2865 21.08C75.9592 21.08 75.6873 20.8238 75.6697 20.4941C75.6529 20.1535 75.915 19.8636 76.2556 19.846C84.4021 19.4296 92.4037 15.0429 97.1361 8.39682C97.3338 8.12025 97.7177 8.05268 97.9974 8.25228C98.2748 8.44994 98.34 8.8351 98.1424 9.11322C93.1959 16.0589 84.833 20.6437 76.3178 21.0788C76.3072 21.0792 76.2971 21.08 76.2865 21.08Z" fill="#401A49"/>
<path d="M97.5503 14.0766C97.2264 14.0766 96.9538 13.8227 96.9354 13.4946C96.8514 12.054 97.0463 10.5188 97.5026 8.98169C95.8647 9.79536 94.0706 10.2727 92.2342 10.3774C91.8885 10.3852 91.6026 10.1368 91.5831 9.79614C91.5635 9.45551 91.8233 9.16411 92.1639 9.14458C94.3565 9.02036 96.4799 8.31137 98.3049 7.09497C98.5319 6.9434 98.8307 6.95825 99.0401 7.13208C99.2502 7.30512 99.3225 7.59497 99.217 7.84575C98.428 9.73559 98.0659 11.6645 98.167 13.4235C98.187 13.7637 97.9268 14.0555 97.5874 14.0758C97.5749 14.0758 97.5624 14.0766 97.5503 14.0766Z" fill="#401A49"/>
<path d="M171.014 8.27246H141.204C134.146 8.27246 128.424 13.9939 128.424 21.0518V27.5279C128.424 34.5857 134.145 40.3072 141.204 40.3072H148.993L147.309 51.7768L155.334 40.3072H171.014C178.072 40.3072 183.793 34.5857 183.793 27.5279V21.0518C183.794 13.9939 178.072 8.27246 171.014 8.27246Z" fill="#8F8FEF"/>
<path d="M164.91 23.7373V32.4936H147.39V23.7373C147.39 18.8982 151.314 14.9736 156.154 14.9736C158.573 14.9736 160.757 15.9549 162.343 17.5408C163.929 19.1268 164.91 21.3178 164.91 23.7373Z" fill="#FFD2A7"/>
<path d="M147.39 32.139C147.464 32.139 147.545 32.1316 147.648 32.139L147.39 32.1465L147.154 32.1613C147.154 32.1539 147.236 32.1465 147.39 32.139Z" fill="#401A49"/>
<path d="M166.227 33.5274H145.321C144.957 33.5274 144.662 33.2321 144.662 32.8681C144.662 32.504 144.957 32.2087 145.08 32.1704H165.986C166.591 32.2087 166.886 32.504 166.886 32.8681C166.886 33.2325 166.591 33.5274 166.227 33.5274Z" fill="#FFD2A7"/>
<path d="M158.317 34.4693C158.317 35.6135 157.389 36.5412 156.245 36.5412C155.101 36.5412 154.173 35.6135 154.173 34.4693C154.173 33.3252 155.101 32.3975 156.245 32.3975C157.389 32.3975 158.317 33.3252 158.317 34.4693Z" fill="#FFD2A7"/>
<path d="M156.951 16.0588H155.115V13.6811C155.115 13.174 155.526 12.7627 156.033 12.7627C156.54 12.7627 156.951 13.1736 156.951 13.6811V16.0588Z" fill="#FFD2A7"/>
<path d="M164.958 32.2926H147.39C147.31 32.2926 147.245 32.2273 147.245 32.1473C147.245 32.0672 147.31 32.002 147.39 32.002H164.958C165.038 32.002 165.103 32.0672 165.103 32.1473C165.103 32.2273 165.038 32.2926 164.958 32.2926Z" fill="#401A49"/>
<path d="M122.101 152.107H111.517V162.692H122.101V152.107Z" fill="#FFA766"/>
<path d="M138.882 152.107H128.297V162.692H138.882V152.107Z" fill="#FF899A"/>
<path d="M154.63 152.107H144.045V162.692H154.63V152.107Z" fill="#FFD2A7"/>
<path d="M55.0452 131.437L55.6514 130.225C56.9694 127.589 60.0065 126.3 62.8182 127.183L86.2823 134.551C89.869 135.677 91.5495 139.786 89.7796 143.103L86.4175 149.404L58.4632 139.798C55.03 138.619 53.4217 134.685 55.0452 131.437Z" fill="#8F8FEF"/>
<path d="M67.9995 136.111C67.7217 137.095 66.7034 137.668 65.7245 137.391C64.7456 137.115 64.1772 136.094 64.4545 135.111C64.7323 134.127 65.7506 133.554 66.7295 133.83C67.7088 134.106 68.2772 135.128 67.9995 136.111Z" fill="#FFF5EE"/>
<path d="M73.3168 137.612C73.0391 138.596 72.0208 139.169 71.0419 138.893C70.0629 138.617 69.4946 137.595 69.7719 136.612C70.0493 135.628 71.068 135.055 72.0469 135.331C73.0262 135.608 73.5946 136.629 73.3168 137.612Z" fill="#FFF5EE"/>
<path d="M78.5297 139.084C78.2524 140.067 77.2336 140.64 76.2547 140.364C75.2758 140.088 74.7075 139.066 74.9848 138.083C75.2626 137.1 76.2809 136.527 77.2598 136.803C78.2391 137.079 78.8075 138.1 78.5297 139.084Z" fill="#FFF5EE"/>
<path d="M90.759 161.298L91.0488 159.974C91.6789 157.095 90.1258 154.185 87.3832 153.105L64.4977 144.1C60.9992 142.723 57.1109 144.865 56.4043 148.557L55.0625 155.572L82.8477 165.656C86.2601 166.895 89.9828 164.844 90.759 161.298Z" fill="#F05D6A"/>
<path d="M76.647 156.211C76.3146 157.177 76.8247 158.229 77.7865 158.56C78.7482 158.89 79.7974 158.375 80.1298 157.409C80.4622 156.443 79.9521 155.391 78.9904 155.06C78.0286 154.729 76.9794 155.244 76.647 156.211Z" fill="#FFF5EE"/>
<path d="M71.4224 154.413C71.09 155.379 71.6001 156.431 72.5618 156.762C73.5236 157.092 74.5728 156.577 74.9052 155.611C75.2376 154.645 74.7275 153.593 73.7658 153.262C72.804 152.932 71.7552 153.446 71.4224 154.413Z" fill="#FFF5EE"/>
<path d="M66.3003 152.651C65.9679 153.617 66.4781 154.669 67.4398 155C68.4015 155.331 69.4507 154.815 69.7831 153.849C70.1156 152.883 69.6054 151.832 68.6437 151.501C67.682 151.17 66.6327 151.685 66.3003 152.651Z" fill="#FFF5EE"/>
</svg>
