<svg width="16" height="16" viewBox="0 0 16 16" fill="none" xmlns="http://www.w3.org/2000/svg">
<path d="M9.33333 4H2.66667C2.3 4 2 4.3 2 4.66667C2 5.03333 2.3 5.33333 2.66667 5.33333H9.33333C9.7 5.33333 10 5.03333 10 4.66667C10 4.3 9.7 4 9.33333 4ZM9.33333 6.66667H2.66667C2.3 6.66667 2 6.96667 2 7.33333C2 7.7 2.3 8 2.66667 8H9.33333C9.7 8 10 7.7 10 7.33333C10 6.96667 9.7 6.66667 9.33333 6.66667ZM2.66667 10.6667H6.66667C7.03333 10.6667 7.33333 10.3667 7.33333 10C7.33333 9.63333 7.03333 9.33333 6.66667 9.33333H2.66667C2.3 9.33333 2 9.63333 2 10C2 10.3667 2.3 10.6667 2.66667 10.6667ZM12.6667 4C11.9333 4 11.3333 4.6 11.3333 5.33333V9.45333C11.1267 9.38 10.9 9.33333 10.6667 9.33333C9.44 9.33333 8.48 10.4267 8.7 11.6933C8.84 12.5 9.5 13.16 10.3067 13.3C11.5733 13.52 12.6667 12.56 12.6667 11.3333V5.33333H14C14.3667 5.33333 14.6667 5.03333 14.6667 4.66667C14.6667 4.3 14.3667 4 14 4H12.6667Z" fill="#161616"/>
</svg>
