<svg width="16" height="16" viewBox="0 0 16 16" fill="none" xmlns="http://www.w3.org/2000/svg">
<path d="M7.06002 6.11329L4.08002 3.13329C3.82002 2.87329 3.40002 2.87329 3.14002 3.13329C2.88002 3.39329 2.88002 3.81329 3.14002 4.07329L6.11335 7.04663L7.06002 6.11329ZM10.2334 3.23329L11.0267 4.02663L3.13335 11.92C2.87335 12.18 2.87335 12.6 3.13335 12.86C3.39335 13.12 3.81335 13.12 4.07335 12.86L11.9734 4.97329L12.7667 5.76663C12.9734 5.97329 13.3334 5.82663 13.3334 5.52663V2.99996C13.3334 2.81329 13.1867 2.66663 13 2.66663H10.4734C10.1734 2.66663 10.0267 3.02663 10.2334 3.23329ZM9.88669 8.93996L8.94669 9.87996L11.0334 11.9666L10.2334 12.7666C10.0267 12.9733 10.1734 13.3333 10.4734 13.3333H13C13.1867 13.3333 13.3334 13.1866 13.3334 13V10.4733C13.3334 10.1733 12.9734 10.0266 12.7667 10.24L11.9734 11.0333L9.88669 8.93996Z" fill="#161616"/>
</svg>
